<svg xmlns="http://www.w3.org/2000/svg" width="370" height="392" viewBox="0 0 370 392" role="img" aria-labelledby="title desc">
  <title id="title">Light Refraction</title>
  <desc id="desc">A dark experiment card showing white light splitting through a prism.</desc>
  <defs>
    <linearGradient id="bg" x1="0" x2="1" y1="0" y2="1">
      <stop offset="0" stop-color="#242424"/>
      <stop offset=".58" stop-color="#181818"/>
      <stop offset="1" stop-color="#101010"/>
    </linearGradient>
    <filter id="beamGlow" x="-30%" y="-80%" width="180%" height="260%">
      <feGaussianBlur stdDeviation="4"/>
    </filter>
  </defs>
  <rect width="370" height="392" rx="34" fill="url(#bg)"/>
  <rect width="370" height="392" rx="34" fill="none" stroke="#ffffff" stroke-opacity=".05"/>
  <g transform="translate(0 112)">
    <rect x="0" y="81" width="150" height="4" fill="#ffffff" opacity=".82" filter="url(#beamGlow)"/>
    <rect x="0" y="82" width="150" height="2" fill="#ffffff"/>
    <path d="M146 83L227 21L227 145Z" fill="#7ec9de" fill-opacity=".16" stroke="#bcd6e3" stroke-opacity=".44" stroke-width="2"/>
    <rect x="226" y="20" width="26" height="126" fill="#9bc0d0" fill-opacity=".12" stroke="#d3e3ea" stroke-opacity=".35" stroke-width="2"/>
    <g filter="url(#beamGlow)">
      <path d="M210 82L370 53v11L210 87z" fill="#ff3f64" opacity=".82"/>
      <path d="M210 82L370 67v11L210 87z" fill="#ffcb45" opacity=".82"/>
      <path d="M210 82L370 81v11L210 88z" fill="#44e56d" opacity=".8"/>
      <path d="M210 82L370 95v11L210 88z" fill="#4ebfff" opacity=".82"/>
      <path d="M210 83L370 111v11L210 89z" fill="#5c6dff" opacity=".82"/>
    </g>
    <circle cx="210" cy="84" r="10" fill="#ffffff" opacity=".9" filter="url(#beamGlow)"/>
  </g>
  <text x="185" y="319" fill="#f1f1f1" text-anchor="middle" font-family="Inter, Arial, sans-serif" font-size="18" font-weight="700">Light Refraction</text>
  <text x="185" y="343" fill="#9b9b9b" text-anchor="middle" font-family="Inter, Arial, sans-serif" font-size="12">See how light bends through a lens</text>
</svg>
